<svg xmlns="http://www.w3.org/2000/svg" viewBox="0 0 116.11 147.14"><g data-name="Layer 2"><g data-name="App Icon Kit B"><g data-name="App Icon and Badge"><path d="M55.91 7.52c-.52 0-2.7 0-6.54-.05s-9.66 0-17.44 0q-.09 10-.14 15.19t-.05 14.13q0 8.59.07 17.47t.12 11.8h-8.05q.09-2.94.17-12t.07-17.69V22.84q0-5-.14-15.41-10.41-.06-16.87 0L0 7.5V.78q5 0 12.23.05t15.36.05q11.82 0 19.75-.05l8.57-.05zm60.2 24.91c-.06 2.34-.13 5.08-.19 8.22s-.1 5.74-.1 7.79q0 4.94.1 11c.06 4 .1 6.31.1 6.76-.3 0-1.27.11-2.93.22s-3.27.18-4.84.18a76.5 76.5 0 01-20.53-2.49 36.35 36.35 0 01-15.45-8.7 28.16 28.16 0 01-6.52-9.44 31.74 31.74 0 01-2.42-12.86 27.81 27.81 0 014.66-15.89 34.39 34.39 0 0113-11.31 49.47 49.47 0 0112.77-4.42A73.2 73.2 0 01108.67 0h4.15l.59 7h-3.76a68.15 68.15 0 00-13.69 1.28 40.42 40.42 0 00-10.85 3.71 25.39 25.39 0 00-9.9 9 22.45 22.45 0 00-3.63 12.23q0 8.16 3.74 13.51a26.2 26.2 0 009.66 8.39 41 41 0 0011.17 3.78 65.53 65.53 0 0012.18 1.11c0-.52 0-3.05-.05-7.6s-.09-11.21-.19-20zM71.66 80.64q-.1 7.67-.17 17.53t-.08 14.21q0 13.86.1 22c.06 5.46.1 8.36.1 8.72l-6.5 3.17q-14.75-19.92-27.56-36L22.73 91.83h-.1q0 13.08.17 32.15t.22 22h-7.61q0-1.22.14-8.69t.1-20.8v-14.14q0-8.81-.19-18.68l7.37-3.45q.87 1.13 15 19t26.5 33.14h.1q0-7.51-.2-25.3t-.19-26.37zm38.91 0q0 3.85-.07 8.3t-.07 13.87v21.72a29.3 29.3 0 01-1 7.87 16.68 16.68 0 01-3.61 6.59 21.51 21.51 0 01-7.49 5.23 39.64 39.64 0 01-12.62 2.93l-1-6.68a56.25 56.25 0 008.62-1.55 12.9 12.9 0 005.4-2.95 11.31 11.31 0 003.07-4.91 25.31 25.31 0 00.93-7.54v-19.05q0-10.4-.1-15.19t-.14-8.64z" data-name="App Icon"/></g></g></g></svg>