<svg xmlns="http://www.w3.org/2000/svg" viewBox="0 0 116.11 147.14"><g id="bd96cdb7-0654-4fea-affa-f2668475addb" data-name="Layer 2"><g id="a81e07da-3835-463c-bf84-ab4a00735fd9" data-name="App Icon Kit B"><g id="f083ee70-b2fd-40fd-938b-a163ea1ea4ff" data-name="App Icon and Badge"><g id="bb8e5198-d1e7-4845-ab02-b3b9591e9b08" data-name="App Icon"><path d="M83.58,27.3c-.52,0-2.7,0-6.54-.05s-9.66,0-17.44,0q-.09,10-.14,15.19t-.05,14.13q0,8.59.07,17.47t.12,11.8H51.55q.09-2.94.17-12t.07-17.69V42.62q0-5-.14-15.41-10.41-.06-16.87,0l-7.11.07V20.56q5,0,12.23.05t15.36.05q11.82,0,19.75-.05l8.57-.05Z" transform="translate(-27.67 -19.78)"/><path d="M143.78,52.21c-.06,2.34-.13,5.08-.19,8.22s-.1,5.74-.1,7.79q0,4.94.1,11c.06,4,.1,6.31.1,6.76-.3,0-1.27.11-2.93.22s-3.27.18-4.84.18a76.5,76.5,0,0,1-20.53-2.49,36.35,36.35,0,0,1-15.45-8.7,28.16,28.16,0,0,1-6.52-9.44A31.74,31.74,0,0,1,91,52.89,27.81,27.81,0,0,1,95.66,37a34.39,34.39,0,0,1,13-11.31,49.47,49.47,0,0,1,12.77-4.42,73.2,73.2,0,0,1,14.91-1.49c.82,0,1.57,0,2.27,0l1.88,0,.59,7-1.56,0-2.2,0a68.15,68.15,0,0,0-13.69,1.28,40.42,40.42,0,0,0-10.85,3.71,25.39,25.39,0,0,0-9.9,9A22.45,22.45,0,0,0,99.25,53q0,8.16,3.74,13.51a26.2,26.2,0,0,0,9.66,8.39,41,41,0,0,0,11.17,3.78A65.53,65.53,0,0,0,136,79.79c0-.52,0-3.05-.05-7.6s-.09-11.21-.19-20Z" transform="translate(-27.67 -19.78)"/><path d="M99.33,100.42q-.1,7.67-.17,17.53t-.08,14.21q0,13.86.1,22c.06,5.46.1,8.36.1,8.72l-6.5,3.17q-14.75-19.92-27.56-36L50.4,111.61l-.1,0q0,13.08.17,32.15t.22,22H43.08q0-1.22.14-8.69t.1-20.8q0-5.33,0-14.14t-.19-18.68L50.5,100q.87,1.13,15,19T92,152.14l.1,0q0-7.51-.2-25.3t-.19-26.37Z" transform="translate(-27.67 -19.78)"/><path d="M138.24,100.42q0,3.85-.07,8.3t-.07,13.87v21.72a29.3,29.3,0,0,1-1,7.87,16.68,16.68,0,0,1-3.61,6.59A21.51,21.51,0,0,1,126,164a39.64,39.64,0,0,1-12.62,2.93l-1-6.68A56.25,56.25,0,0,0,121,158.7a12.9,12.9,0,0,0,5.4-2.95,11.31,11.31,0,0,0,3.07-4.91,25.31,25.31,0,0,0,.93-7.54c0-3.36,0-6.65,0-9.89s0-6.29,0-9.16q0-10.4-.1-15.19t-.14-8.64Z" transform="translate(-27.67 -19.78)"/></g></g></g></g></svg>